<mxfile host="app.diagrams.net" modified="2020-08-31T06:31:03.525Z" agent="5.0 (Windows)" etag="aYoZHUQKJ7_sP7hEU1Pg" version="13.6.5" type="github">
  <diagram id="zvMdNeZ5TChEJuspwTch" name="Page-1">
    <mxGraphModel dx="1038" dy="547" grid="1" gridSize="10" guides="1" tooltips="1" connect="1" arrows="1" fold="1" page="1" pageScale="1" pageWidth="1169" pageHeight="827" math="0" shadow="0">
      <root>
        <mxCell id="0" />
        <mxCell id="1" parent="0" />
        <mxCell id="o6c0h8PLCJ8R-q3oVO_S-1" value="Product Development - Selection of Suitable Enterprises" style="swimlane;html=1;childLayout=stackLayout;resizeParent=1;resizeParentMax=0;horizontal=1;startSize=20;horizontalStack=0;" vertex="1" parent="1">
          <mxGeometry x="290" y="90" width="480" height="380" as="geometry" />
        </mxCell>
        <mxCell id="o6c0h8PLCJ8R-q3oVO_S-2" value="Lane 1" style="swimlane;html=1;startSize=20;horizontal=0;" vertex="1" parent="o6c0h8PLCJ8R-q3oVO_S-1">
          <mxGeometry y="20" width="480" height="120" as="geometry" />
        </mxCell>
        <mxCell id="o6c0h8PLCJ8R-q3oVO_S-3" value="Lane 2" style="swimlane;html=1;startSize=20;horizontal=0;" vertex="1" parent="o6c0h8PLCJ8R-q3oVO_S-1">
          <mxGeometry y="140" width="480" height="120" as="geometry" />
        </mxCell>
        <mxCell id="o6c0h8PLCJ8R-q3oVO_S-4" value="Lane 3" style="swimlane;html=1;startSize=20;horizontal=0;" vertex="1" parent="o6c0h8PLCJ8R-q3oVO_S-1">
          <mxGeometry y="260" width="480" height="120" as="geometry" />
        </mxCell>
      </root>
    </mxGraphModel>
  </diagram>
</mxfile>
